<?xml version="1.0" encoding="UTF-8" standalone="no"?>
<!DOCTYPE svg PUBLIC "-//W3C//DTD SVG 1.0//EN" "http://www.w3.org/TR/2001/PR-SVG-20010719/DTD/svg10.dtd">
<svg width="71cm" height="72cm" viewBox="-2 -1573 1402 1428" xmlns="http://www.w3.org/2000/svg" xmlns:xlink="http://www.w3.org/1999/xlink">
  <g id="Background">
    <g>
      <rect style="fill: #ffffff; fill-opacity: 1; stroke-opacity: 1; stroke-width: 2; stroke: #000000" x="614" y="-962.676" width="186" height="124.5" rx="0" ry="0"/>
      <text font-size="19.7556" style="fill: #000000; fill-opacity: 1; stroke: none;text-anchor:middle;font-family:sans-serif;font-style:normal;font-weight:normal" x="707" y="-894.423">
        <tspan x="707" y="-894.423">BOOK</tspan>
      </text>
    </g>
    <g>
      <rect style="fill: #ffffff; fill-opacity: 1; stroke-opacity: 1; stroke-width: 2; stroke: #000000" x="1227.67" y="-964.868" width="171" height="128" rx="0" ry="0"/>
      <text font-size="19.7556" style="fill: #000000; fill-opacity: 1; stroke: none;text-anchor:middle;font-family:sans-serif;font-style:normal;font-weight:normal" x="1313.17" y="-894.865">
        <tspan x="1313.17" y="-894.865">REVIEW</tspan>
      </text>
    </g>
    <g>
      <polygon style="fill: #ffffff; fill-opacity: 1; stroke-opacity: 1; stroke-width: 2; stroke: #000000" fill-rule="evenodd" points="1006.39,-943.414 1050,-899.861 1006.39,-856.307 962.786,-899.861 "/>
      <text font-size="12.8" style="fill: #000000; fill-opacity: 1; stroke: none;text-anchor:middle;font-family:sans-serif;font-style:normal;font-weight:normal" x="1006.39" y="-895.961">
        <tspan x="1006.39" y="-895.961"></tspan>
      </text>
    </g>
    <g>
      <line style="fill: none; stroke-opacity: 1; stroke-width: 2; stroke: #000000" x1="801.008" y1="-900.248" x2="961.869" y2="-899.945"/>
      <line style="fill: none; stroke-opacity: 1; stroke-width: 2; stroke: #000000" x1="805.998" y1="-895.239" x2="806.017" y2="-905.239"/>
      <path style="fill: none; stroke-opacity: 1; stroke-width: 2; stroke: #000000" d="M 813.508 -900.225 C 813.513,-902.725 814.767,-905.223 816.017,-905.22 C 817.267,-905.218 818.513,-902.715 818.508,-900.215 C 818.503,-897.715 817.248,-895.218 815.998,-895.22 C 814.748,-895.223 813.503,-897.725 813.508,-900.225"/>
    </g>
    <text font-size="12.8" style="fill: #000000; fill-opacity: 1; stroke: none;text-anchor:start;font-family:sans-serif;font-style:normal;font-weight:normal" x="872" y="-906">
      <tspan x="872" y="-906">HAS</tspan>
    </text>
    <g>
      <line style="fill: none; stroke-opacity: 1; stroke-width: 2; stroke: #000000" x1="1050.85" y1="-900.007" x2="1226.7" y2="-900.584"/>
      <line style="fill: none; stroke-opacity: 1; stroke-width: 2; stroke: #000000" x1="1216.7" y1="-900.551" x2="1226.72" y2="-895.584"/>
      <line style="fill: none; stroke-opacity: 1; stroke-width: 2; stroke: #000000" x1="1216.7" y1="-900.551" x2="1226.68" y2="-905.584"/>
      <line style="fill: none; stroke-opacity: 1; stroke-width: 2; stroke: #000000" x1="1216.72" y1="-895.551" x2="1216.68" y2="-905.551"/>
    </g>
    <text font-size="12.8" style="fill: #000000; fill-opacity: 1; stroke: none;text-anchor:start;font-family:sans-serif;font-style:normal;font-weight:normal" x="1129" y="-920">
      <tspan x="1129" y="-920">WRITTEN </tspan>
      <tspan x="1129" y="-904">ON</tspan>
    </text>
    <g>
      <rect style="fill: #ffffff; fill-opacity: 1; stroke-opacity: 1; stroke-width: 2; stroke: #000000" x="1227.82" y="-480.5" width="171" height="128" rx="0" ry="0"/>
      <text font-size="19.7556" style="fill: #000000; fill-opacity: 1; stroke: none;text-anchor:middle;font-family:sans-serif;font-style:normal;font-weight:normal" x="1313.32" y="-410.497">
        <tspan x="1313.32" y="-410.497">USER</tspan>
      </text>
    </g>
    <g>
      <polygon style="fill: #ffffff; fill-opacity: 1; stroke-opacity: 1; stroke-width: 2; stroke: #000000" fill-rule="evenodd" points="1312.61,-708.7 1356.21,-665.147 1312.61,-621.593 1269,-665.147 "/>
      <text font-size="12.8" style="fill: #000000; fill-opacity: 1; stroke: none;text-anchor:middle;font-family:sans-serif;font-style:normal;font-weight:normal" x="1312.61" y="-661.247">
        <tspan x="1312.61" y="-661.247"></tspan>
      </text>
    </g>
    <g>
      <line style="fill: none; stroke-opacity: 1; stroke-width: 2; stroke: #000000" x1="1312.71" y1="-709.589" x2="1313.01" y2="-835.881"/>
      <line style="fill: none; stroke-opacity: 1; stroke-width: 2; stroke: #000000" x1="1308" y1="-830.893" x2="1318" y2="-830.869"/>
      <line style="fill: none; stroke-opacity: 1; stroke-width: 2; stroke: #000000" x1="1307.99" y1="-825.893" x2="1317.99" y2="-825.869"/>
    </g>
    <g>
      <line style="fill: none; stroke-opacity: 1; stroke-width: 2; stroke: #000000" x1="1312.73" y1="-620.832" x2="1313.14" y2="-481.484"/>
      <line style="fill: none; stroke-opacity: 1; stroke-width: 2; stroke: #000000" x1="1313.11" y1="-491.484" x2="1308.14" y2="-481.47"/>
      <line style="fill: none; stroke-opacity: 1; stroke-width: 2; stroke: #000000" x1="1313.11" y1="-491.484" x2="1318.14" y2="-481.499"/>
      <path style="fill: none; stroke-opacity: 1; stroke-width: 2; stroke: #000000" d="M 1313.1 -493.984 C 1310.6,-493.977 1308.1,-495.22 1308.09,-496.47 C 1308.09,-497.72 1310.59,-498.977 1313.09,-498.984 C 1315.59,-498.992 1318.09,-497.749 1318.09,-496.499 C 1318.1,-495.249 1315.6,-493.992 1313.1,-493.984"/>
    </g>
    <g>
      <rect style="fill: #ffffff; fill-opacity: 1; stroke-opacity: 1; stroke-width: 2; stroke: #000000" x="0.193892" y="-811.744" width="186" height="124.5" rx="0" ry="0"/>
      <text font-size="19.7556" style="fill: #000000; fill-opacity: 1; stroke: none;text-anchor:middle;font-family:sans-serif;font-style:normal;font-weight:normal" x="93.1939" y="-743.491">
        <tspan x="93.1939" y="-743.491">GENRE</tspan>
      </text>
    </g>
    <text font-size="12.8" style="fill: #000000; fill-opacity: 1; stroke: none;text-anchor:start;font-family:sans-serif;font-style:normal;font-weight:normal" x="1324.24" y="-771.506">
      <tspan x="1324.24" y="-771.506">WRITTEN </tspan>
      <tspan x="1324.24" y="-755.506">BY</tspan>
    </text>
    <text font-size="12.8" style="fill: #000000; fill-opacity: 1; stroke: none;text-anchor:start;font-family:sans-serif;font-style:normal;font-weight:normal" x="1325.1" y="-544.122">
      <tspan x="1325.1" y="-544.122">WRITES</tspan>
    </text>
    <g>
      <polygon style="fill: #ffffff; fill-opacity: 1; stroke-opacity: 1; stroke-width: 2; stroke: #000000" fill-rule="evenodd" points="387.571,-792.938 431.177,-749.385 387.571,-705.831 343.964,-749.385 "/>
      <text font-size="12.8" style="fill: #000000; fill-opacity: 1; stroke: none;text-anchor:middle;font-family:sans-serif;font-style:normal;font-weight:normal" x="387.571" y="-745.485">
        <tspan x="387.571" y="-745.485"></tspan>
      </text>
    </g>
    <g>
      <line style="fill: none; stroke-opacity: 1; stroke-width: 2; stroke: #000000" x1="342.994" y1="-749.401" x2="187.055" y2="-749.459"/>
      <line style="fill: none; stroke-opacity: 1; stroke-width: 2; stroke: #000000" x1="197.055" y1="-749.455" x2="187.057" y2="-754.459"/>
      <line style="fill: none; stroke-opacity: 1; stroke-width: 2; stroke: #000000" x1="197.055" y1="-749.455" x2="187.053" y2="-744.459"/>
      <path style="fill: none; stroke-opacity: 1; stroke-width: 2; stroke: #000000" d="M 199.555 -749.455 C 199.556,-751.955 200.807,-754.454 202.057,-754.454 C 203.307,-754.453 204.556,-751.953 204.555,-749.453 C 204.554,-746.953 203.303,-744.453 202.053,-744.454 C 200.803,-744.454 199.554,-746.955 199.555,-749.455"/>
    </g>
    <text font-size="12.8" style="fill: #000000; fill-opacity: 1; stroke: none;text-anchor:start;font-family:sans-serif;font-style:normal;font-weight:normal" x="249.182" y="-764.168">
      <tspan x="249.182" y="-764.168">HAS</tspan>
    </text>
    <text font-size="12.8" style="fill: #000000; fill-opacity: 1; stroke: none;text-anchor:start;font-family:sans-serif;font-style:normal;font-weight:normal" x="424.91" y="-1019.47">
      <tspan x="424.91" y="-1019.47">HAS</tspan>
    </text>
    <g>
      <rect style="fill: #ffffff; fill-opacity: 1; stroke-opacity: 1; stroke-width: 2; stroke: #000000" x="919.78" y="-1570.05" width="171" height="128" rx="0" ry="0"/>
      <text font-size="19.7556" style="fill: #000000; fill-opacity: 1; stroke: none;text-anchor:middle;font-family:sans-serif;font-style:normal;font-weight:normal" x="1005.28" y="-1500.05">
        <tspan x="1005.28" y="-1500.05">EVENT</tspan>
      </text>
    </g>
    <g>
      <rect style="fill: #ffffff; fill-opacity: 1; stroke-opacity: 1; stroke-width: 2; stroke: #000000" x="620.586" y="-1571.55" width="171" height="128" rx="0" ry="0"/>
      <text font-size="19.7556" style="fill: #000000; fill-opacity: 1; stroke: none;text-anchor:middle;font-family:sans-serif;font-style:normal;font-weight:normal" x="706.086" y="-1501.54">
        <tspan x="706.086" y="-1501.54">AUTHOR</tspan>
      </text>
    </g>
    <g>
      <rect style="fill: #ffffff; fill-opacity: 1; stroke-opacity: 1; stroke-width: 2; stroke: #000000" x="-0.366666" y="-1568.04" width="186" height="124.5" rx="0" ry="0"/>
      <text font-size="19.7556" style="fill: #000000; fill-opacity: 1; stroke: none;text-anchor:middle;font-family:sans-serif;font-style:normal;font-weight:normal" x="92.6333" y="-1499.79">
        <tspan x="92.6333" y="-1499.79">THEME</tspan>
      </text>
    </g>
    <g>
      <rect style="fill: #ffffff; fill-opacity: 1; stroke-opacity: 1; stroke-width: 2; stroke: #000000" x="734.3" y="-270.28" width="186" height="124.5" rx="0" ry="0"/>
      <text font-size="19.7556" style="fill: #000000; fill-opacity: 1; stroke: none;text-anchor:middle;font-family:sans-serif;font-style:normal;font-weight:normal" x="827.3" y="-202.027">
        <tspan x="827.3" y="-202.027">CART</tspan>
      </text>
    </g>
    <g>
      <polygon style="fill: #ffffff; fill-opacity: 1; stroke-opacity: 1; stroke-width: 2; stroke: #000000" fill-rule="evenodd" points="705.907,-1264.53 749.513,-1220.97 705.907,-1177.42 662.3,-1220.97 "/>
      <text font-size="12.8" style="fill: #000000; fill-opacity: 1; stroke: none;text-anchor:middle;font-family:sans-serif;font-style:normal;font-weight:normal" x="705.907" y="-1217.07">
        <tspan x="705.907" y="-1217.07"></tspan>
      </text>
    </g>
    <g>
      <line style="fill: none; stroke-opacity: 1; stroke-width: 2; stroke: #000000" x1="706.058" y1="-1176.58" x2="706.784" y2="-963.669"/>
      <line style="fill: none; stroke-opacity: 1; stroke-width: 2; stroke: #000000" x1="706.75" y1="-973.669" x2="701.784" y2="-963.652"/>
      <line style="fill: none; stroke-opacity: 1; stroke-width: 2; stroke: #000000" x1="706.75" y1="-973.669" x2="711.784" y2="-963.686"/>
      <line style="fill: none; stroke-opacity: 1; stroke-width: 2; stroke: #000000" x1="701.75" y1="-973.652" x2="711.75" y2="-973.686"/>
    </g>
    <text font-size="12.8" style="fill: #000000; fill-opacity: 1; stroke: none;text-anchor:start;font-family:sans-serif;font-style:normal;font-weight:normal" x="713.3" y="-1108.29">
      <tspan x="713.3" y="-1108.29">WRITTEN BY</tspan>
    </text>
    <g>
      <line style="fill: none; stroke-opacity: 1; stroke-width: 2; stroke: #000000" x1="705.934" y1="-1265.49" x2="706.045" y2="-1442.54"/>
      <line style="fill: none; stroke-opacity: 1; stroke-width: 2; stroke: #000000" x1="706.039" y1="-1432.54" x2="711.045" y2="-1442.54"/>
      <line style="fill: none; stroke-opacity: 1; stroke-width: 2; stroke: #000000" x1="706.039" y1="-1432.54" x2="701.045" y2="-1442.54"/>
      <path style="fill: none; stroke-opacity: 1; stroke-width: 2; stroke: #000000" d="M 706.037 -1430.04 C 708.537,-1430.04 711.037,-1428.79 711.036,-1427.54 C 711.035,-1426.29 708.534,-1425.04 706.034,-1425.04 C 703.534,-1425.04 701.035,-1426.29 701.036,-1427.54 C 701.037,-1428.79 703.537,-1430.04 706.037,-1430.04"/>
    </g>
    <text font-size="12.8" style="fill: #000000; fill-opacity: 1; stroke: none;text-anchor:start;font-family:sans-serif;font-style:normal;font-weight:normal" x="722.634" y="-1349.63">
      <tspan x="722.634" y="-1349.63">WRITES</tspan>
    </text>
    <g>
      <rect style="fill: #ffffff; fill-opacity: 1; stroke-opacity: 1; stroke-width: 2; stroke: #000000" x="732.838" y="-511.066" width="186" height="124.5" rx="0" ry="0"/>
      <text font-size="19.7556" style="fill: #000000; fill-opacity: 1; stroke: none;text-anchor:middle;font-family:sans-serif;font-style:normal;font-weight:normal" x="825.838" y="-442.813">
        <tspan x="825.838" y="-442.813">RESERVATION</tspan>
      </text>
    </g>
    <g>
      <polygon style="fill: #ffffff; fill-opacity: 1; stroke-opacity: 1; stroke-width: 2; stroke: #000000" fill-rule="evenodd" points="928.907,-1267.53 972.513,-1223.97 928.907,-1180.42 885.3,-1223.97 "/>
      <text font-size="12.8" style="fill: #000000; fill-opacity: 1; stroke: none;text-anchor:middle;font-family:sans-serif;font-style:normal;font-weight:normal" x="928.907" y="-1220.07">
        <tspan x="928.907" y="-1220.07"></tspan>
      </text>
    </g>
    <g>
      <rect style="fill: #ffffff; fill-opacity: 1; stroke-opacity: 1; stroke-width: 2; stroke: #000000" x="307.324" y="-1570.45" width="171" height="128" rx="0" ry="0"/>
      <text font-size="19.7556" style="fill: #000000; fill-opacity: 1; stroke: none;text-anchor:middle;font-family:sans-serif;font-style:normal;font-weight:normal" x="392.824" y="-1500.45">
        <tspan x="392.824" y="-1500.45">INTERVIEW</tspan>
      </text>
    </g>
    <g>
      <polygon style="fill: #ffffff; fill-opacity: 1; stroke-opacity: 1; stroke-width: 2; stroke: #000000" fill-rule="evenodd" points="484.907,-1265.86 528.513,-1222.3 484.907,-1178.75 441.3,-1222.3 "/>
      <text font-size="12.8" style="fill: #000000; fill-opacity: 1; stroke: none;text-anchor:middle;font-family:sans-serif;font-style:normal;font-weight:normal" x="484.907" y="-1218.4">
        <tspan x="484.907" y="-1218.4"></tspan>
      </text>
    </g>
    <g>
      <polyline style="fill: none; stroke-opacity: 1; stroke-width: 2; stroke: #000000" points="529.513,-1222.3 571.757,-1222.3 571.757,-962.676 614,-962.676 "/>
      <line style="fill: none; stroke-opacity: 1; stroke-width: 2; stroke: #000000" x1="609" y1="-967.676" x2="609" y2="-957.676"/>
      <path style="fill: none; stroke-opacity: 1; stroke-width: 2; stroke: #000000" d="M 601.5 -962.676 C 601.5,-960.176 600.25,-957.676 599,-957.676 C 597.75,-957.676 596.5,-960.176 596.5,-962.676 C 596.5,-965.176 597.75,-967.676 599,-967.676 C 600.25,-967.676 601.5,-965.176 601.5,-962.676"/>
    </g>
    <g>
      <polyline style="fill: none; stroke-opacity: 1; stroke-width: 2; stroke: #000000" points="441.3,-1222.3 392.824,-1222.3 392.824,-1441.44 "/>
      <line style="fill: none; stroke-opacity: 1; stroke-width: 2; stroke: #000000" x1="387.824" y1="-1436.44" x2="397.824" y2="-1436.44"/>
      <line style="fill: none; stroke-opacity: 1; stroke-width: 2; stroke: #000000" x1="387.824" y1="-1431.44" x2="397.824" y2="-1431.44"/>
    </g>
    <g>
      <polyline style="fill: none; stroke-opacity: 1; stroke-width: 2; stroke: #000000" points="884.3,-1223.97 854.966,-1223.97 854.966,-931.55 800,-931.55 "/>
      <line style="fill: none; stroke-opacity: 1; stroke-width: 2; stroke: #000000" x1="805" y1="-926.55" x2="805" y2="-936.55"/>
      <path style="fill: none; stroke-opacity: 1; stroke-width: 2; stroke: #000000" d="M 812.5 -931.55 C 812.5,-934.05 813.75,-936.55 815,-936.55 C 816.25,-936.55 817.5,-934.05 817.5,-931.55 C 817.5,-929.05 816.25,-926.55 815,-926.55 C 813.75,-926.55 812.5,-929.05 812.5,-931.55"/>
    </g>
    <g>
      <polyline style="fill: none; stroke-opacity: 1; stroke-width: 2; stroke: #000000" points="972.513,-1223.97 1005.28,-1223.97 1005.28,-1441.05 "/>
      <line style="fill: none; stroke-opacity: 1; stroke-width: 2; stroke: #000000" x1="1000.28" y1="-1436.05" x2="1010.28" y2="-1436.05"/>
      <line style="fill: none; stroke-opacity: 1; stroke-width: 2; stroke: #000000" x1="1000.28" y1="-1431.05" x2="1010.28" y2="-1431.05"/>
    </g>
    <g>
      <polygon style="fill: #ffffff; fill-opacity: 1; stroke-opacity: 1; stroke-width: 2; stroke: #000000" fill-rule="evenodd" points="255.999,-1189.75 299.605,-1146.2 255.999,-1102.65 212.392,-1146.2 "/>
      <text font-size="12.8" style="fill: #000000; fill-opacity: 1; stroke: none;text-anchor:middle;font-family:sans-serif;font-style:normal;font-weight:normal" x="255.999" y="-1142.3">
        <tspan x="255.999" y="-1142.3"></tspan>
      </text>
    </g>
    <g>
      <polyline style="fill: none; stroke-opacity: 1; stroke-width: 2; stroke: #000000" points="432.177,-749.385 461.06,-749.385 461.06,-838.176 614,-838.176 "/>
      <line style="fill: none; stroke-opacity: 1; stroke-width: 2; stroke: #000000" x1="604" y1="-838.176" x2="614" y2="-833.176"/>
      <line style="fill: none; stroke-opacity: 1; stroke-width: 2; stroke: #000000" x1="604" y1="-838.176" x2="614" y2="-843.176"/>
      <line style="fill: none; stroke-opacity: 1; stroke-width: 2; stroke: #000000" x1="604" y1="-833.176" x2="604" y2="-843.176"/>
    </g>
    <g>
      <polyline style="fill: none; stroke-opacity: 1; stroke-width: 2; stroke: #000000" points="300.605,-1146.2 416.712,-1146.2 416.712,-900.426 614,-900.426 "/>
      <line style="fill: none; stroke-opacity: 1; stroke-width: 2; stroke: #000000" x1="604" y1="-900.426" x2="614" y2="-895.426"/>
      <line style="fill: none; stroke-opacity: 1; stroke-width: 2; stroke: #000000" x1="604" y1="-900.426" x2="614" y2="-905.426"/>
      <line style="fill: none; stroke-opacity: 1; stroke-width: 2; stroke: #000000" x1="604" y1="-895.426" x2="604" y2="-905.426"/>
    </g>
    <text font-size="12.8" style="fill: #000000; fill-opacity: 1; stroke: none;text-anchor:start;font-family:sans-serif;font-style:normal;font-weight:normal" x="526.762" y="-815.85">
      <tspan x="526.762" y="-815.85">HAS</tspan>
    </text>
    <g>
      <polyline style="fill: none; stroke-opacity: 1; stroke-width: 2; stroke: #000000" points="212.392,-1146.2 92.6333,-1146.2 92.6333,-1443.54 "/>
      <line style="fill: none; stroke-opacity: 1; stroke-width: 2; stroke: #000000" x1="92.6333" y1="-1433.54" x2="97.6333" y2="-1443.54"/>
      <line style="fill: none; stroke-opacity: 1; stroke-width: 2; stroke: #000000" x1="92.6333" y1="-1433.54" x2="87.6333" y2="-1443.54"/>
      <line style="fill: none; stroke-opacity: 1; stroke-width: 2; stroke: #000000" x1="97.6333" y1="-1433.54" x2="87.6333" y2="-1433.54"/>
    </g>
    <g>
      <polygon style="fill: #ffffff; fill-opacity: 1; stroke-opacity: 1; stroke-width: 2; stroke: #000000" fill-rule="evenodd" points="1098.63,-252.68 1142.23,-209.127 1098.63,-165.573 1055.02,-209.127 "/>
      <text font-size="12.8" style="fill: #000000; fill-opacity: 1; stroke: none;text-anchor:middle;font-family:sans-serif;font-style:normal;font-weight:normal" x="1098.63" y="-205.227">
        <tspan x="1098.63" y="-205.227"></tspan>
      </text>
    </g>
    <g>
      <polyline style="fill: none; stroke-opacity: 1; stroke-width: 2; stroke: #000000" points="1143.23,-209.126 1180.56,-209.126 1180.56,-384.5 1227.82,-384.5 "/>
      <line style="fill: none; stroke-opacity: 1; stroke-width: 2; stroke: #000000" x1="1222.82" y1="-389.5" x2="1222.82" y2="-379.5"/>
      <line style="fill: none; stroke-opacity: 1; stroke-width: 2; stroke: #000000" x1="1217.82" y1="-389.5" x2="1217.82" y2="-379.5"/>
    </g>
    <g>
      <polygon style="fill: #ffffff; fill-opacity: 1; stroke-opacity: 1; stroke-width: 2; stroke: #000000" fill-rule="evenodd" points="1083.34,-492.492 1126.95,-448.939 1083.34,-405.385 1039.73,-448.939 "/>
      <text font-size="12.8" style="fill: #000000; fill-opacity: 1; stroke: none;text-anchor:middle;font-family:sans-serif;font-style:normal;font-weight:normal" x="1083.34" y="-445.039">
        <tspan x="1083.34" y="-445.039"></tspan>
      </text>
    </g>
    <g>
      <line style="fill: none; stroke-opacity: 1; stroke-width: 2; stroke: #000000" x1="1127.8" y1="-448.804" x2="1227.82" y2="-448.5"/>
      <line style="fill: none; stroke-opacity: 1; stroke-width: 2; stroke: #000000" x1="1222.84" y1="-453.515" x2="1222.81" y2="-443.515"/>
      <line style="fill: none; stroke-opacity: 1; stroke-width: 2; stroke: #000000" x1="1217.84" y1="-453.53" x2="1217.81" y2="-443.53"/>
    </g>
    <g>
      <line style="fill: none; stroke-opacity: 1; stroke-width: 2; stroke: #000000" x1="1038.75" y1="-448.917" x2="919.84" y2="-448.861"/>
      <line style="fill: none; stroke-opacity: 1; stroke-width: 2; stroke: #000000" x1="924.842" y1="-443.863" x2="924.837" y2="-453.863"/>
      <line style="fill: none; stroke-opacity: 1; stroke-width: 2; stroke: #000000" x1="929.842" y1="-443.866" x2="929.837" y2="-453.866"/>
    </g>
    <g>
      <line style="fill: none; stroke-opacity: 1; stroke-width: 2; stroke: #000000" x1="1054.2" y1="-208.947" x2="921.305" y2="-208.41"/>
      <line style="fill: none; stroke-opacity: 1; stroke-width: 2; stroke: #000000" x1="926.326" y1="-203.43" x2="926.285" y2="-213.43"/>
      <line style="fill: none; stroke-opacity: 1; stroke-width: 2; stroke: #000000" x1="931.326" y1="-203.45" x2="931.285" y2="-213.45"/>
    </g>
    <g>
      <polygon style="fill: #ffffff; fill-opacity: 1; stroke-opacity: 1; stroke-width: 2; stroke: #000000" fill-rule="evenodd" points="825.963,-684.67 869.569,-641.117 825.963,-597.563 782.356,-641.117 "/>
      <text font-size="12.8" style="fill: #000000; fill-opacity: 1; stroke: none;text-anchor:middle;font-family:sans-serif;font-style:normal;font-weight:normal" x="825.963" y="-637.217">
        <tspan x="825.963" y="-637.217"></tspan>
      </text>
    </g>
    <g>
      <line style="fill: none; stroke-opacity: 1; stroke-width: 2; stroke: #000000" x1="825.934" y1="-596.598" x2="825.879" y2="-512.067"/>
      <line style="fill: none; stroke-opacity: 1; stroke-width: 2; stroke: #000000" x1="825.885" y1="-522.067" x2="820.879" y2="-512.07"/>
      <line style="fill: none; stroke-opacity: 1; stroke-width: 2; stroke: #000000" x1="825.885" y1="-522.067" x2="830.879" y2="-512.064"/>
      <path style="fill: none; stroke-opacity: 1; stroke-width: 2; stroke: #000000" d="M 825.887 -524.567 C 823.387,-524.569 820.888,-525.82 820.889,-527.07 C 820.89,-528.32 823.39,-529.569 825.89,-529.567 C 828.39,-529.566 830.89,-528.314 830.889,-527.064 C 830.888,-525.814 828.387,-524.566 825.887,-524.567"/>
    </g>
    <g>
      <polyline style="fill: none; stroke-opacity: 1; stroke-width: 2; stroke: #000000" points="825.963,-684.67 825.963,-761.423 753.5,-761.423 753.5,-838.176 "/>
      <line style="fill: none; stroke-opacity: 1; stroke-width: 2; stroke: #000000" x1="753.5" y1="-828.176" x2="758.5" y2="-838.176"/>
      <line style="fill: none; stroke-opacity: 1; stroke-width: 2; stroke: #000000" x1="753.5" y1="-828.176" x2="748.5" y2="-838.176"/>
      <path style="fill: none; stroke-opacity: 1; stroke-width: 2; stroke: #000000" d="M 753.5 -825.676 C 756,-825.676 758.5,-824.426 758.5,-823.176 C 758.5,-821.926 756,-820.676 753.5,-820.676 C 751,-820.676 748.5,-821.926 748.5,-823.176 C 748.5,-824.426 751,-825.676 753.5,-825.676"/>
    </g>
    <g>
      <polygon style="fill: #ffffff; fill-opacity: 1; stroke-opacity: 1; stroke-width: 2; stroke: #000000" fill-rule="evenodd" points="559.871,-507.274 603.477,-463.721 559.871,-420.167 516.264,-463.721 "/>
      <text font-size="12.8" style="fill: #000000; fill-opacity: 1; stroke: none;text-anchor:middle;font-family:sans-serif;font-style:normal;font-weight:normal" x="559.871" y="-459.821">
        <tspan x="559.871" y="-459.821"></tspan>
      </text>
    </g>
    <g>
      <polyline style="fill: none; stroke-opacity: 1; stroke-width: 2; stroke: #000000" points="559.871,-420.167 559.871,-208.03 734.3,-208.03 "/>
      <line style="fill: none; stroke-opacity: 1; stroke-width: 2; stroke: #000000" x1="724.3" y1="-208.03" x2="734.3" y2="-203.03"/>
      <line style="fill: none; stroke-opacity: 1; stroke-width: 2; stroke: #000000" x1="724.3" y1="-208.03" x2="734.3" y2="-213.03"/>
      <path style="fill: none; stroke-opacity: 1; stroke-width: 2; stroke: #000000" d="M 721.8 -208.03 C 721.8,-205.53 720.55,-203.03 719.3,-203.03 C 718.05,-203.03 716.8,-205.53 716.8,-208.03 C 716.8,-210.53 718.05,-213.03 719.3,-213.03 C 720.55,-213.03 721.8,-210.53 721.8,-208.03"/>
    </g>
    <g>
      <polyline style="fill: none; stroke-opacity: 1; stroke-width: 2; stroke: #000000" points="559.871,-508.274 559.871,-673.225 660.5,-673.225 660.5,-838.176 "/>
      <line style="fill: none; stroke-opacity: 1; stroke-width: 2; stroke: #000000" x1="660.5" y1="-828.176" x2="665.5" y2="-838.176"/>
      <line style="fill: none; stroke-opacity: 1; stroke-width: 2; stroke: #000000" x1="660.5" y1="-828.176" x2="655.5" y2="-838.176"/>
      <path style="fill: none; stroke-opacity: 1; stroke-width: 2; stroke: #000000" d="M 660.5 -825.676 C 663,-825.676 665.5,-824.426 665.5,-823.176 C 665.5,-821.926 663,-820.676 660.5,-820.676 C 658,-820.676 655.5,-821.926 655.5,-823.176 C 655.5,-824.426 658,-825.676 660.5,-825.676"/>
    </g>
    <text font-size="12.8" style="fill: #000000; fill-opacity: 1; stroke: none;text-anchor:start;font-family:sans-serif;font-style:normal;font-weight:normal" x="771.228" y="-768.772">
      <tspan x="771.228" y="-768.772">IS RESERVED</tspan>
    </text>
    <text font-size="12.8" style="fill: #000000; fill-opacity: 1; stroke: none;text-anchor:start;font-family:sans-serif;font-style:normal;font-weight:normal" x="837.896" y="-549.038">
      <tspan x="837.896" y="-549.038">RESERVES</tspan>
    </text>
    <text font-size="12.8" style="fill: #000000; fill-opacity: 1; stroke: none;text-anchor:start;font-family:sans-serif;font-style:normal;font-weight:normal" x="1145.9" y="-475.438">
      <tspan x="1145.9" y="-475.438">RESERVES</tspan>
    </text>
    <text font-size="12.8" style="fill: #000000; fill-opacity: 1; stroke: none;text-anchor:start;font-family:sans-serif;font-style:normal;font-weight:normal" x="940.562" y="-474.772">
      <tspan x="940.562" y="-474.772">IS RESERVED</tspan>
    </text>
    <text font-size="12.8" style="fill: #000000; fill-opacity: 1; stroke: none;text-anchor:start;font-family:sans-serif;font-style:normal;font-weight:normal" x="1128.56" y="-291.038">
      <tspan x="1128.56" y="-291.038">ADDS</tspan>
    </text>
    <text font-size="12.8" style="fill: #000000; fill-opacity: 1; stroke: none;text-anchor:start;font-family:sans-serif;font-style:normal;font-weight:normal" x="963.228" y="-225.972">
      <tspan x="963.228" y="-225.972">IS ADDED</tspan>
    </text>
    <text font-size="12.8" style="fill: #000000; fill-opacity: 1; stroke: none;text-anchor:start;font-family:sans-serif;font-style:normal;font-weight:normal" x="576.562" y="-307.572">
      <tspan x="576.562" y="-307.572">ADDS</tspan>
    </text>
    <text font-size="12.8" style="fill: #000000; fill-opacity: 1; stroke: none;text-anchor:start;font-family:sans-serif;font-style:normal;font-weight:normal" x="587.228" y="-679.838">
      <tspan x="587.228" y="-679.838">IS ADDED</tspan>
    </text>
    <text font-size="12.8" style="fill: #000000; fill-opacity: 1; stroke: none;text-anchor:start;font-family:sans-serif;font-style:normal;font-weight:normal" x="865.896" y="-1073.44">
      <tspan x="865.896" y="-1073.44">IS PRESENTED</tspan>
    </text>
    <text font-size="12.8" style="fill: #000000; fill-opacity: 1; stroke: none;text-anchor:start;font-family:sans-serif;font-style:normal;font-weight:normal" x="1024.56" y="-1328.37">
      <tspan x="1024.56" y="-1328.37">PRESENTS</tspan>
    </text>
    <text font-size="12.8" style="fill: #000000; fill-opacity: 1; stroke: none;text-anchor:start;font-family:sans-serif;font-style:normal;font-weight:normal" x="529.896" y="-1084.64">
      <tspan x="529.896" y="-1084.64">HAS</tspan>
    </text>
    <text font-size="12.8" style="fill: #000000; fill-opacity: 1; stroke: none;text-anchor:start;font-family:sans-serif;font-style:normal;font-weight:normal" x="408.562" y="-1327.57">
      <tspan x="408.562" y="-1327.57">IS LINKED TO</tspan>
    </text>
    <text font-size="12.8" style="fill: #000000; fill-opacity: 1; stroke: none;text-anchor:start;font-family:sans-serif;font-style:normal;font-weight:normal" x="111.229" y="-1290.51">
      <tspan x="111.229" y="-1290.51">HAS</tspan>
    </text>
  </g>
</svg>
