<?xml version="1.0" encoding="UTF-8" standalone="no"?><svg xmlns="http://www.w3.org/2000/svg" xmlns:xlink="http://www.w3.org/1999/xlink" contentScriptType="application/ecmascript" contentStyleType="text/css" height="546px" preserveAspectRatio="none" style="width:406px;height:546px;" version="1.1" viewBox="0 0 406 546" width="406px" zoomAndPan="magnify"><defs><filter height="300%" id="fppre4zhgyri6" width="300%" x="-1" y="-1"><feGaussianBlur result="blurOut" stdDeviation="2.0"/><feColorMatrix in="blurOut" result="blurOut2" type="matrix" values="0 0 0 0 0 0 0 0 0 0 0 0 0 0 0 0 0 0 .4 0"/><feOffset dx="4.0" dy="4.0" in="blurOut2" result="blurOut3"/><feBlend in="SourceGraphic" in2="blurOut3" mode="normal"/></filter></defs><g><rect fill="#FFBBBB" filter="url(#fppre4zhgyri6)" height="353.2" style="stroke: #A80036; stroke-width: 1.0;" width="10" x="40" y="96.7999"/><rect fill="#FFBBBB" filter="url(#fppre4zhgyri6)" height="72.2" style="stroke: #A80036; stroke-width: 1.0;" width="10" x="210" y="118.3999"/><rect fill="#FFBBBB" filter="url(#fppre4zhgyri6)" height="35.6" style="stroke: #A80036; stroke-width: 1.0;" width="10" x="210" y="220.2"/><rect fill="#FFBBBB" filter="url(#fppre4zhgyri6)" height="72.2" style="stroke: #A80036; stroke-width: 1.0;" width="10" x="210" y="317"/><rect fill="#FFBBBB" filter="url(#fppre4zhgyri6)" height="34.6" style="stroke: #A80036; stroke-width: 1.0;" width="10" x="361" y="354.6"/><rect fill="#FFFFFF" filter="url(#fppre4zhgyri6)" height="164.2" style="stroke: #000000; stroke-width: 2.0;" width="381" x="13" y="277.8"/><rect fill="#FFFFFF" height="44.7999" style="stroke: none; stroke-width: 1.0;" width="381" x="13" y="397.2001"/><line style="stroke: #A80036; stroke-width: 1.0; stroke-dasharray: 5.0,5.0;" x1="45" x2="45" y1="86.7999" y2="459"/><line style="stroke: #A80036; stroke-width: 1.0; stroke-dasharray: 5.0,5.0;" x1="214.5" x2="214.5" y1="86.7999" y2="459"/><line style="stroke: #A80036; stroke-width: 1.0; stroke-dasharray: 5.0,5.0;" x1="366" x2="366" y1="86.7999" y2="459"/><text fill="#000000" font-family="sans-serif" font-size="14" lengthAdjust="spacingAndGlyphs" textLength="38" x="23" y="83.0059">Guest</text><ellipse cx="45" cy="13" fill="#FEFECE" filter="url(#fppre4zhgyri6)" rx="8" ry="8" style="stroke: #A80036; stroke-width: 2.0;"/><path d="M45,21 L45,48 M32,29 L58,29 M45,48 L32,63 M45,48 L58,63 " fill="none" filter="url(#fppre4zhgyri6)" style="stroke: #A80036; stroke-width: 2.0;"/><text fill="#000000" font-family="sans-serif" font-size="14" lengthAdjust="spacingAndGlyphs" textLength="38" x="23" y="471.0059">Guest</text><ellipse cx="45" cy="484.7999" fill="#FEFECE" filter="url(#fppre4zhgyri6)" rx="8" ry="8" style="stroke: #A80036; stroke-width: 2.0;"/><path d="M45,492.7999 L45,519.7999 M32,500.7999 L58,500.7999 M45,519.7999 L32,534.7999 M45,519.7999 L58,534.7999 " fill="none" filter="url(#fppre4zhgyri6)" style="stroke: #A80036; stroke-width: 2.0;"/><rect fill="#FEFECE" filter="url(#fppre4zhgyri6)" height="30.7999" style="stroke: #A80036; stroke-width: 1.5;" width="61" x="182.5" y="51"/><text fill="#000000" font-family="sans-serif" font-size="14" lengthAdjust="spacingAndGlyphs" textLength="47" x="189.5" y="71.0059">System</text><rect fill="#FEFECE" filter="url(#fppre4zhgyri6)" height="30.7999" style="stroke: #A80036; stroke-width: 1.5;" width="61" x="182.5" y="458"/><text fill="#000000" font-family="sans-serif" font-size="14" lengthAdjust="spacingAndGlyphs" textLength="47" x="189.5" y="478.0059">System</text><text fill="#000000" font-family="sans-serif" font-size="14" lengthAdjust="spacingAndGlyphs" textLength="30" x="348" y="83.0059">User</text><ellipse cx="366" cy="13" fill="#FEFECE" filter="url(#fppre4zhgyri6)" rx="8" ry="8" style="stroke: #A80036; stroke-width: 2.0;"/><path d="M366,21 L366,48 M353,29 L379,29 M366,48 L353,63 M366,48 L379,63 " fill="none" filter="url(#fppre4zhgyri6)" style="stroke: #A80036; stroke-width: 2.0;"/><text fill="#000000" font-family="sans-serif" font-size="14" lengthAdjust="spacingAndGlyphs" textLength="30" x="348" y="471.0059">User</text><ellipse cx="366" cy="484.7999" fill="#FEFECE" filter="url(#fppre4zhgyri6)" rx="8" ry="8" style="stroke: #A80036; stroke-width: 2.0;"/><path d="M366,492.7999 L366,519.7999 M353,500.7999 L379,500.7999 M366,519.7999 L353,534.7999 M366,519.7999 L379,534.7999 " fill="none" filter="url(#fppre4zhgyri6)" style="stroke: #A80036; stroke-width: 2.0;"/><rect fill="#FFBBBB" filter="url(#fppre4zhgyri6)" height="353.2" style="stroke: #A80036; stroke-width: 1.0;" width="10" x="40" y="96.7999"/><rect fill="#FFBBBB" filter="url(#fppre4zhgyri6)" height="72.2" style="stroke: #A80036; stroke-width: 1.0;" width="10" x="210" y="118.3999"/><rect fill="#FFBBBB" filter="url(#fppre4zhgyri6)" height="35.6" style="stroke: #A80036; stroke-width: 1.0;" width="10" x="210" y="220.2"/><rect fill="#FFBBBB" filter="url(#fppre4zhgyri6)" height="72.2" style="stroke: #A80036; stroke-width: 1.0;" width="10" x="210" y="317"/><rect fill="#FFBBBB" filter="url(#fppre4zhgyri6)" height="34.6" style="stroke: #A80036; stroke-width: 1.0;" width="10" x="361" y="354.6"/><polygon fill="#A80036" points="198,114.3999,208,118.3999,198,122.3999,202,118.3999" style="stroke: #A80036; stroke-width: 1.0;"/><line style="stroke: #A80036; stroke-width: 1.0;" x1="50" x2="204" y1="118.3999" y2="118.3999"/><text fill="#000000" font-family="sans-serif" font-size="13" lengthAdjust="spacingAndGlyphs" textLength="69" x="57" y="112.8769">Registration</text><line style="stroke: #A80036; stroke-width: 1.0;" x1="220" x2="262" y1="148" y2="148"/><line style="stroke: #A80036; stroke-width: 1.0;" x1="262" x2="262" y1="148" y2="161"/><line style="stroke: #A80036; stroke-width: 1.0;" x1="221" x2="262" y1="161" y2="161"/><polygon fill="#A80036" points="231,157,221,161,231,165,227,161" style="stroke: #A80036; stroke-width: 1.0;"/><text fill="#000000" font-family="sans-serif" font-size="13" lengthAdjust="spacingAndGlyphs" textLength="127" x="227" y="142.477">LoadRegistrationPage</text><polygon fill="#A80036" points="61,186.6,51,190.6,61,194.6,57,190.6" style="stroke: #A80036; stroke-width: 1.0;"/><line style="stroke: #A80036; stroke-width: 1.0; stroke-dasharray: 2.0,2.0;" x1="55" x2="214" y1="190.6" y2="190.6"/><text fill="#000000" font-family="sans-serif" font-size="13" lengthAdjust="spacingAndGlyphs" textLength="131" x="67" y="185.077">ShowRegistrationPage</text><polygon fill="#A80036" points="198,216.2,208,220.2,198,224.2,202,220.2" style="stroke: #A80036; stroke-width: 1.0;"/><line style="stroke: #A80036; stroke-width: 1.0;" x1="50" x2="204" y1="220.2" y2="220.2"/><text fill="#000000" font-family="sans-serif" font-size="13" lengthAdjust="spacingAndGlyphs" textLength="98" x="57" y="214.677">InsertInformation</text><line style="stroke: #A80036; stroke-width: 1.0;" x1="220" x2="262" y1="254.8" y2="254.8"/><line style="stroke: #A80036; stroke-width: 1.0;" x1="262" x2="262" y1="254.8" y2="267.8"/><line style="stroke: #A80036; stroke-width: 1.0;" x1="215" x2="262" y1="267.8" y2="267.8"/><polygon fill="#A80036" points="225,263.8,215,267.8,225,271.8,221,267.8" style="stroke: #A80036; stroke-width: 1.0;"/><text fill="#000000" font-family="sans-serif" font-size="13" lengthAdjust="spacingAndGlyphs" textLength="99" x="227" y="249.277">VerifyInformation</text><path d="M13,277.8 L73,277.8 L73,284.8 L63,294.8 L13,294.8 L13,277.8 " fill="#EEEEEE" style="stroke: #000000; stroke-width: 1.0;"/><rect fill="none" height="164.2" style="stroke: #000000; stroke-width: 2.0;" width="381" x="13" y="277.8"/><text fill="#000000" font-family="sans-serif" font-size="13" font-weight="bold" lengthAdjust="spacingAndGlyphs" textLength="15" x="28" y="290.877">alt</text><text fill="#000000" font-family="sans-serif" font-size="11" font-weight="bold" lengthAdjust="spacingAndGlyphs" textLength="110" x="88" y="290.0189">[correct information]</text><polygon fill="#A80036" points="61,313,51,317,61,321,57,317" style="stroke: #A80036; stroke-width: 1.0;"/><line style="stroke: #A80036; stroke-width: 1.0; stroke-dasharray: 2.0,2.0;" x1="55" x2="209" y1="317" y2="317"/><text fill="#000000" font-family="sans-serif" font-size="13" lengthAdjust="spacingAndGlyphs" textLength="141" x="67" y="311.477">NotifyCorrectInformation</text><line style="stroke: #A80036; stroke-width: 1.0;" x1="220" x2="267" y1="341.6" y2="341.6"/><line style="stroke: #A80036; stroke-width: 1.0;" x1="267" x2="267" y1="341.6" y2="354.6"/><line style="stroke: #A80036; stroke-width: 1.0;" x1="226" x2="267" y1="354.6" y2="354.6"/><polygon fill="#A80036" points="236,350.6,226,354.6,236,358.6,232,354.6" style="stroke: #A80036; stroke-width: 1.0;"/><text fill="#000000" font-family="sans-serif" font-size="13" lengthAdjust="spacingAndGlyphs" textLength="97" x="232" y="336.077">&lt;&lt;CreateUser&gt;&gt;</text><polygon fill="#A80036" points="354,385.2001,364,389.2001,354,393.2001,358,389.2001" style="stroke: #A80036; stroke-width: 1.0;"/><line style="stroke: #A80036; stroke-width: 1.0; stroke-dasharray: 2.0,2.0;" x1="215" x2="360" y1="389.2001" y2="389.2001"/><text fill="#000000" font-family="sans-serif" font-size="13" lengthAdjust="spacingAndGlyphs" textLength="93" x="222" y="383.677">ShowLoginPage</text><line style="stroke: #000000; stroke-width: 1.0; stroke-dasharray: 2.0,2.0;" x1="13" x2="394" y1="398.2001" y2="398.2001"/><text fill="#000000" font-family="sans-serif" font-size="11" font-weight="bold" lengthAdjust="spacingAndGlyphs" textLength="120" x="18" y="408.419">[incorrect information]</text><polygon fill="#A80036" points="61,430,51,434,61,438,57,434" style="stroke: #A80036; stroke-width: 1.0;"/><line style="stroke: #A80036; stroke-width: 1.0; stroke-dasharray: 2.0,2.0;" x1="55" x2="214" y1="434" y2="434"/><text fill="#000000" font-family="sans-serif" font-size="13" lengthAdjust="spacingAndGlyphs" textLength="107" x="67" y="428.477">NotifyIncorrectInfo</text><!--
@startuml

actor Guest
participant System
actor User

activate Guest #FFBBBB
Guest -> System: Registration
activate System #FFBBBB
System -> System: LoadRegistrationPage
System - -> Guest: ShowRegistrationPage
deactivate System #FFBBBB
Guest -> System: InsertInformation
activate System #FFBBBB
System -> System: VerifyInformation
deactivate System #FFBBBB

alt correct information
    System - -> Guest: NotifyCorrectInformation
    activate System #FFBBBB
    System -> System: <<CreateUser>>
    activate User #FFBBBB
    System - -> User: ShowLoginPage
    deactivate User #FFBBBB
    deactivate System #FFBBBB
else incorrect information
  System - -> Guest: NotifyIncorrectInfo
end

@enduml

PlantUML version 1.2019.06(Fri May 24 19:10:25 CEST 2019)
(GPL source distribution)
Java Runtime: OpenJDK Runtime Environment
JVM: OpenJDK 64-Bit Server VM
Java Version: 11.0.3+4
Operating System: Linux
OS Version: 5.1.7-arch1-1-ARCH
Default Encoding: UTF-8
Language: en
Country: US
--></g></svg>