<?xml version="1.0" encoding="UTF-8" standalone="no"?><svg xmlns="http://www.w3.org/2000/svg" xmlns:xlink="http://www.w3.org/1999/xlink" contentScriptType="application/ecmascript" contentStyleType="text/css" height="431px" preserveAspectRatio="none" style="width:295px;height:431px;" version="1.1" viewBox="0 0 295 431" width="295px" zoomAndPan="magnify"><defs><filter height="300%" id="f1vrn41ufqto46" width="300%" x="-1" y="-1"><feGaussianBlur result="blurOut" stdDeviation="2.0"/><feColorMatrix in="blurOut" result="blurOut2" type="matrix" values="0 0 0 0 0 0 0 0 0 0 0 0 0 0 0 0 0 0 .4 0"/><feOffset dx="4.0" dy="4.0" in="blurOut2" result="blurOut3"/><feBlend in="SourceGraphic" in2="blurOut3" mode="normal"/></filter></defs><g><rect fill="#FFBBBB" filter="url(#f1vrn41ufqto46)" height="238.4" style="stroke: #A80036; stroke-width: 1.0;" width="10" x="36" y="96.7999"/><rect fill="#FFBBBB" filter="url(#f1vrn41ufqto46)" height="29.6" style="stroke: #A80036; stroke-width: 1.0;" width="10" x="169" y="118.3999"/><rect fill="#FFBBBB" filter="url(#f1vrn41ufqto46)" height="35.6" style="stroke: #A80036; stroke-width: 1.0;" width="10" x="169" y="177.6"/><rect fill="#FFFFFF" filter="url(#f1vrn41ufqto46)" height="91.9999" style="stroke: #000000; stroke-width: 2.0;" width="203.5" x="13" y="235.2"/><rect fill="#FFFFFF" height="44.7999" style="stroke: none; stroke-width: 1.0;" width="203.5" x="13" y="282.4"/><line style="stroke: #A80036; stroke-width: 1.0; stroke-dasharray: 5.0,5.0;" x1="41" x2="41" y1="86.7999" y2="344.1999"/><line style="stroke: #A80036; stroke-width: 1.0; stroke-dasharray: 5.0,5.0;" x1="173.5" x2="173.5" y1="86.7999" y2="344.1999"/><text fill="#000000" font-family="sans-serif" font-size="14" lengthAdjust="spacingAndGlyphs" textLength="30" x="23" y="83.0059">User</text><ellipse cx="41" cy="13" fill="#FEFECE" filter="url(#f1vrn41ufqto46)" rx="8" ry="8" style="stroke: #A80036; stroke-width: 2.0;"/><path d="M41,21 L41,48 M28,29 L54,29 M41,48 L28,63 M41,48 L54,63 " fill="none" filter="url(#f1vrn41ufqto46)" style="stroke: #A80036; stroke-width: 2.0;"/><text fill="#000000" font-family="sans-serif" font-size="14" lengthAdjust="spacingAndGlyphs" textLength="30" x="23" y="356.2059">User</text><ellipse cx="41" cy="369.9999" fill="#FEFECE" filter="url(#f1vrn41ufqto46)" rx="8" ry="8" style="stroke: #A80036; stroke-width: 2.0;"/><path d="M41,377.9999 L41,404.9999 M28,385.9999 L54,385.9999 M41,404.9999 L28,419.9999 M41,404.9999 L54,419.9999 " fill="none" filter="url(#f1vrn41ufqto46)" style="stroke: #A80036; stroke-width: 2.0;"/><rect fill="#FEFECE" filter="url(#f1vrn41ufqto46)" height="30.7999" style="stroke: #A80036; stroke-width: 1.5;" width="61" x="141.5" y="51"/><text fill="#000000" font-family="sans-serif" font-size="14" lengthAdjust="spacingAndGlyphs" textLength="47" x="148.5" y="71.0059">System</text><rect fill="#FEFECE" filter="url(#f1vrn41ufqto46)" height="30.7999" style="stroke: #A80036; stroke-width: 1.5;" width="61" x="141.5" y="343.1999"/><text fill="#000000" font-family="sans-serif" font-size="14" lengthAdjust="spacingAndGlyphs" textLength="47" x="148.5" y="363.2059">System</text><rect fill="#FFBBBB" filter="url(#f1vrn41ufqto46)" height="238.4" style="stroke: #A80036; stroke-width: 1.0;" width="10" x="36" y="96.7999"/><rect fill="#FFBBBB" filter="url(#f1vrn41ufqto46)" height="29.6" style="stroke: #A80036; stroke-width: 1.0;" width="10" x="169" y="118.3999"/><rect fill="#FFBBBB" filter="url(#f1vrn41ufqto46)" height="35.6" style="stroke: #A80036; stroke-width: 1.0;" width="10" x="169" y="177.6"/><polygon fill="#A80036" points="157,114.3999,167,118.3999,157,122.3999,161,118.3999" style="stroke: #A80036; stroke-width: 1.0;"/><line style="stroke: #A80036; stroke-width: 1.0;" x1="46" x2="163" y1="118.3999" y2="118.3999"/><text fill="#000000" font-family="sans-serif" font-size="13" lengthAdjust="spacingAndGlyphs" textLength="77" x="53" y="112.8769">SpecificBook</text><polygon fill="#A80036" points="57,144,47,148,57,152,53,148" style="stroke: #A80036; stroke-width: 1.0;"/><line style="stroke: #A80036; stroke-width: 1.0; stroke-dasharray: 2.0,2.0;" x1="51" x2="173" y1="148" y2="148"/><text fill="#000000" font-family="sans-serif" font-size="13" lengthAdjust="spacingAndGlyphs" textLength="62" x="63" y="142.477">ShowBook</text><polygon fill="#A80036" points="157,173.6,167,177.6,157,181.6,161,177.6" style="stroke: #A80036; stroke-width: 1.0;"/><line style="stroke: #A80036; stroke-width: 1.0;" x1="46" x2="163" y1="177.6" y2="177.6"/><text fill="#000000" font-family="sans-serif" font-size="13" lengthAdjust="spacingAndGlyphs" textLength="65" x="53" y="172.077">SetAmount</text><line style="stroke: #A80036; stroke-width: 1.0;" x1="179" x2="221" y1="212.2" y2="212.2"/><line style="stroke: #A80036; stroke-width: 1.0;" x1="221" x2="221" y1="212.2" y2="225.2"/><line style="stroke: #A80036; stroke-width: 1.0;" x1="174" x2="221" y1="225.2" y2="225.2"/><polygon fill="#A80036" points="184,221.2,174,225.2,184,229.2,180,225.2" style="stroke: #A80036; stroke-width: 1.0;"/><text fill="#000000" font-family="sans-serif" font-size="13" lengthAdjust="spacingAndGlyphs" textLength="97" x="186" y="206.677">VerifyAvailability</text><path d="M13,235.2 L73,235.2 L73,242.2 L63,252.2 L13,252.2 L13,235.2 " fill="#EEEEEE" style="stroke: #000000; stroke-width: 1.0;"/><rect fill="none" height="91.9999" style="stroke: #000000; stroke-width: 2.0;" width="203.5" x="13" y="235.2"/><text fill="#000000" font-family="sans-serif" font-size="13" font-weight="bold" lengthAdjust="spacingAndGlyphs" textLength="15" x="28" y="248.277">alt</text><text fill="#000000" font-family="sans-serif" font-size="11" font-weight="bold" lengthAdjust="spacingAndGlyphs" textLength="54" x="88" y="247.4189">[available]</text><polygon fill="#A80036" points="57,270.4,47,274.4,57,278.4,53,274.4" style="stroke: #A80036; stroke-width: 1.0;"/><line style="stroke: #A80036; stroke-width: 1.0; stroke-dasharray: 2.0,2.0;" x1="51" x2="173" y1="274.4" y2="274.4"/><text fill="#000000" font-family="sans-serif" font-size="13" lengthAdjust="spacingAndGlyphs" textLength="102" x="63" y="268.877">NotifySuccesfully</text><line style="stroke: #000000; stroke-width: 1.0; stroke-dasharray: 2.0,2.0;" x1="13" x2="216.5" y1="283.4" y2="283.4"/><text fill="#000000" font-family="sans-serif" font-size="11" font-weight="bold" lengthAdjust="spacingAndGlyphs" textLength="75" x="18" y="293.6189">[not available]</text><polygon fill="#A80036" points="57,315.1999,47,319.1999,57,323.1999,53,319.1999" style="stroke: #A80036; stroke-width: 1.0;"/><line style="stroke: #A80036; stroke-width: 1.0; stroke-dasharray: 2.0,2.0;" x1="51" x2="173" y1="319.1999" y2="319.1999"/><text fill="#000000" font-family="sans-serif" font-size="13" lengthAdjust="spacingAndGlyphs" textLength="104" x="63" y="313.6769">NotifyMaxNumber</text><!--
@startuml

actor User
participant System

activate User #FFBBBB
User -> System: SpecificBook
activate System #FFBBBB
System - -> User: ShowBook
deactivate System #FFBBBB
User -> System: SetAmount
activate System #FFBBBB
System -> System: VerifyAvailability
deactivate System #FFBBBB

alt available
    System - -> User: NotifySuccesfully
else not available
    System - -> User: NotifyMaxNumber
end

@enduml

PlantUML version 1.2019.06(Fri May 24 19:10:25 CEST 2019)
(GPL source distribution)
Java Runtime: OpenJDK Runtime Environment
JVM: OpenJDK 64-Bit Server VM
Java Version: 11.0.3+4
Operating System: Linux
OS Version: 5.1.7-arch1-1-ARCH
Default Encoding: UTF-8
Language: en
Country: US
--></g></svg>