<?xml version="1.0" encoding="UTF-8" standalone="no"?><svg xmlns="http://www.w3.org/2000/svg" xmlns:xlink="http://www.w3.org/1999/xlink" contentScriptType="application/ecmascript" contentStyleType="text/css" height="474px" preserveAspectRatio="none" style="width:281px;height:474px;" version="1.1" viewBox="0 0 281 474" width="281px" zoomAndPan="magnify"><defs><filter height="300%" id="f1nse72kwsakqw" width="300%" x="-1" y="-1"><feGaussianBlur result="blurOut" stdDeviation="2.0"/><feColorMatrix in="blurOut" result="blurOut2" type="matrix" values="0 0 0 0 0 0 0 0 0 0 0 0 0 0 0 0 0 0 .4 0"/><feOffset dx="4.0" dy="4.0" in="blurOut2" result="blurOut3"/><feBlend in="SourceGraphic" in2="blurOut3" mode="normal"/></filter></defs><g><rect fill="#FFBBBB" filter="url(#f1nse72kwsakqw)" height="281" style="stroke: #A80036; stroke-width: 1.0;" width="10" x="36" y="96.7999"/><rect fill="#FFBBBB" filter="url(#f1nse72kwsakqw)" height="72.2" style="stroke: #A80036; stroke-width: 1.0;" width="10" x="163" y="118.3999"/><rect fill="#FFBBBB" filter="url(#f1nse72kwsakqw)" height="35.6" style="stroke: #A80036; stroke-width: 1.0;" width="10" x="163" y="220.2"/><rect fill="#FFFFFF" filter="url(#f1nse72kwsakqw)" height="91.9999" style="stroke: #000000; stroke-width: 2.0;" width="197.5" x="13" y="277.8"/><rect fill="#FFFFFF" height="44.7999" style="stroke: none; stroke-width: 1.0;" width="197.5" x="13" y="325"/><line style="stroke: #A80036; stroke-width: 1.0; stroke-dasharray: 5.0,5.0;" x1="41" x2="41" y1="86.7999" y2="386.7999"/><line style="stroke: #A80036; stroke-width: 1.0; stroke-dasharray: 5.0,5.0;" x1="167.5" x2="167.5" y1="86.7999" y2="386.7999"/><text fill="#000000" font-family="sans-serif" font-size="14" lengthAdjust="spacingAndGlyphs" textLength="30" x="23" y="83.0059">User</text><ellipse cx="41" cy="13" fill="#FEFECE" filter="url(#f1nse72kwsakqw)" rx="8" ry="8" style="stroke: #A80036; stroke-width: 2.0;"/><path d="M41,21 L41,48 M28,29 L54,29 M41,48 L28,63 M41,48 L54,63 " fill="none" filter="url(#f1nse72kwsakqw)" style="stroke: #A80036; stroke-width: 2.0;"/><text fill="#000000" font-family="sans-serif" font-size="14" lengthAdjust="spacingAndGlyphs" textLength="30" x="23" y="398.8059">User</text><ellipse cx="41" cy="412.5999" fill="#FEFECE" filter="url(#f1nse72kwsakqw)" rx="8" ry="8" style="stroke: #A80036; stroke-width: 2.0;"/><path d="M41,420.5999 L41,447.5999 M28,428.5999 L54,428.5999 M41,447.5999 L28,462.5999 M41,447.5999 L54,462.5999 " fill="none" filter="url(#f1nse72kwsakqw)" style="stroke: #A80036; stroke-width: 2.0;"/><rect fill="#FEFECE" filter="url(#f1nse72kwsakqw)" height="30.7999" style="stroke: #A80036; stroke-width: 1.5;" width="61" x="135.5" y="51"/><text fill="#000000" font-family="sans-serif" font-size="14" lengthAdjust="spacingAndGlyphs" textLength="47" x="142.5" y="71.0059">System</text><rect fill="#FEFECE" filter="url(#f1nse72kwsakqw)" height="30.7999" style="stroke: #A80036; stroke-width: 1.5;" width="61" x="135.5" y="385.7999"/><text fill="#000000" font-family="sans-serif" font-size="14" lengthAdjust="spacingAndGlyphs" textLength="47" x="142.5" y="405.8059">System</text><rect fill="#FFBBBB" filter="url(#f1nse72kwsakqw)" height="281" style="stroke: #A80036; stroke-width: 1.0;" width="10" x="36" y="96.7999"/><rect fill="#FFBBBB" filter="url(#f1nse72kwsakqw)" height="72.2" style="stroke: #A80036; stroke-width: 1.0;" width="10" x="163" y="118.3999"/><rect fill="#FFBBBB" filter="url(#f1nse72kwsakqw)" height="35.6" style="stroke: #A80036; stroke-width: 1.0;" width="10" x="163" y="220.2"/><polygon fill="#A80036" points="151,114.3999,161,118.3999,151,122.3999,155,118.3999" style="stroke: #A80036; stroke-width: 1.0;"/><line style="stroke: #A80036; stroke-width: 1.0;" x1="46" x2="157" y1="118.3999" y2="118.3999"/><text fill="#000000" font-family="sans-serif" font-size="13" lengthAdjust="spacingAndGlyphs" textLength="31" x="53" y="112.8769">Login</text><line style="stroke: #A80036; stroke-width: 1.0;" x1="173" x2="215" y1="148" y2="148"/><line style="stroke: #A80036; stroke-width: 1.0;" x1="215" x2="215" y1="148" y2="161"/><line style="stroke: #A80036; stroke-width: 1.0;" x1="174" x2="215" y1="161" y2="161"/><polygon fill="#A80036" points="184,157,174,161,184,165,180,161" style="stroke: #A80036; stroke-width: 1.0;"/><text fill="#000000" font-family="sans-serif" font-size="13" lengthAdjust="spacingAndGlyphs" textLength="89" x="180" y="142.477">LoadLoginPage</text><polygon fill="#A80036" points="57,186.6,47,190.6,57,194.6,53,190.6" style="stroke: #A80036; stroke-width: 1.0;"/><line style="stroke: #A80036; stroke-width: 1.0; stroke-dasharray: 2.0,2.0;" x1="51" x2="167" y1="190.6" y2="190.6"/><text fill="#000000" font-family="sans-serif" font-size="13" lengthAdjust="spacingAndGlyphs" textLength="93" x="63" y="185.077">ShowLoginPage</text><polygon fill="#A80036" points="151,216.2,161,220.2,151,224.2,155,220.2" style="stroke: #A80036; stroke-width: 1.0;"/><line style="stroke: #A80036; stroke-width: 1.0;" x1="46" x2="157" y1="220.2" y2="220.2"/><text fill="#000000" font-family="sans-serif" font-size="13" lengthAdjust="spacingAndGlyphs" textLength="91" x="53" y="214.677">InsertLoginData</text><line style="stroke: #A80036; stroke-width: 1.0;" x1="173" x2="215" y1="254.8" y2="254.8"/><line style="stroke: #A80036; stroke-width: 1.0;" x1="215" x2="215" y1="254.8" y2="267.8"/><line style="stroke: #A80036; stroke-width: 1.0;" x1="168" x2="215" y1="267.8" y2="267.8"/><polygon fill="#A80036" points="178,263.8,168,267.8,178,271.8,174,267.8" style="stroke: #A80036; stroke-width: 1.0;"/><text fill="#000000" font-family="sans-serif" font-size="13" lengthAdjust="spacingAndGlyphs" textLength="61" x="180" y="249.277">VerifyData</text><path d="M13,277.8 L73,277.8 L73,284.8 L63,294.8 L13,294.8 L13,277.8 " fill="#EEEEEE" style="stroke: #000000; stroke-width: 1.0;"/><rect fill="none" height="91.9999" style="stroke: #000000; stroke-width: 2.0;" width="197.5" x="13" y="277.8"/><text fill="#000000" font-family="sans-serif" font-size="13" font-weight="bold" lengthAdjust="spacingAndGlyphs" textLength="15" x="28" y="290.877">alt</text><text fill="#000000" font-family="sans-serif" font-size="11" font-weight="bold" lengthAdjust="spacingAndGlyphs" textLength="71" x="88" y="290.0189">[correct data]</text><polygon fill="#A80036" points="57,313,47,317,57,321,53,317" style="stroke: #A80036; stroke-width: 1.0;"/><line style="stroke: #A80036; stroke-width: 1.0; stroke-dasharray: 2.0,2.0;" x1="51" x2="167" y1="317" y2="317"/><text fill="#000000" font-family="sans-serif" font-size="13" lengthAdjust="spacingAndGlyphs" textLength="73" x="63" y="311.477">CorrectLogin</text><line style="stroke: #000000; stroke-width: 1.0; stroke-dasharray: 2.0,2.0;" x1="13" x2="210.5" y1="326" y2="326"/><text fill="#000000" font-family="sans-serif" font-size="11" font-weight="bold" lengthAdjust="spacingAndGlyphs" textLength="81" x="18" y="336.2189">[incorrect data]</text><polygon fill="#A80036" points="57,357.7999,47,361.7999,57,365.7999,53,361.7999" style="stroke: #A80036; stroke-width: 1.0;"/><line style="stroke: #A80036; stroke-width: 1.0; stroke-dasharray: 2.0,2.0;" x1="51" x2="167" y1="361.7999" y2="361.7999"/><text fill="#000000" font-family="sans-serif" font-size="13" lengthAdjust="spacingAndGlyphs" textLength="28" x="63" y="356.2769">Error</text><!--
@startuml

actor User
participant System

activate User #FFBBBB
User -> System: Login
activate System #FFBBBB
System -> System: LoadLoginPage
System - -> User: ShowLoginPage
deactivate System
User -> System: InsertLoginData
activate System #FFBBBB
System -> System: VerifyData
deactivate System

alt correct data
  System - -> User: CorrectLogin
else incorrect data
  System - -> User: Error
end

@enduml

PlantUML version 1.2019.06(Fri May 24 19:10:25 CEST 2019)
(GPL source distribution)
Java Runtime: OpenJDK Runtime Environment
JVM: OpenJDK 64-Bit Server VM
Java Version: 11.0.3+4
Operating System: Linux
OS Version: 5.1.7-arch1-1-ARCH
Default Encoding: UTF-8
Language: en
Country: US
--></g></svg>